<svg xmlns="http://www.w3.org/2000/svg" xmlns:xlink="http://www.w3.org/1999/xlink" width="1080" zoomAndPan="magnify" viewBox="0 0 810 809.999993" height="1080" preserveAspectRatio="xMidYMid meet" version="1.0"><defs><g/></defs><rect x="-81" width="972" fill="#ffffff" y="-80.999999" height="971.999992" fill-opacity="1"/><rect x="-81" width="972" fill="#ffffff" y="-80.999999" height="971.999992" fill-opacity="1"/><rect x="-81" width="972" fill="#ffffff" y="-80.999999" height="971.999992" fill-opacity="1"/><path stroke-linecap="round" transform="matrix(13.499999, 0, 0, 13.499999, 242.999991, 243.000008)" fill="none" stroke-linejoin="round" d="M 2.000001 11 L 2.000001 4.600115 C 2.000001 4.560474 2.003762 4.521701 2.011575 4.482928 C 2.019098 4.444444 2.030672 4.406828 2.045718 4.37037 C 2.060765 4.333912 2.079283 4.299479 2.100985 4.266782 C 2.122975 4.233796 2.14786 4.203703 2.175637 4.175636 C 2.203704 4.147858 2.233797 4.122974 2.266783 4.100983 C 2.29948 4.079282 2.333913 4.060764 2.370371 4.045717 C 2.406829 4.030671 2.444445 4.019097 2.482929 4.011574 C 2.521702 4.003761 2.560475 4 2.600117 4 L 8.778068 4 C 8.849538 4 8.918693 4.012442 8.985823 4.037037 C 9.052952 4.061921 9.113716 4.097511 9.168115 4.144097 L 12.331888 6.855903 C 12.386286 6.902488 12.44705 6.938078 12.51418 6.962963 C 12.581309 6.987558 12.650464 7 12.721934 7 L 21.399886 7 C 21.439527 7 21.4783 7.003761 21.517073 7.011574 C 21.555557 7.019097 21.593173 7.030671 21.629631 7.045717 C 21.66609 7.060764 21.700523 7.079282 21.733219 7.100984 C 21.766205 7.122974 21.796298 7.147859 21.824365 7.175636 C 21.852143 7.203703 21.877027 7.233796 21.899018 7.266782 C 21.920719 7.299479 21.939238 7.333912 21.954284 7.37037 C 21.96933 7.406829 21.980905 7.444444 21.988428 7.482928 C 21.99624 7.521701 22.000002 7.560474 22.000002 7.600116 L 22.000002 11 M 2.000001 11 L 2.000001 19.399885 C 2.000001 19.439526 2.003762 19.478299 2.011575 19.517072 C 2.019098 19.555556 2.030672 19.593172 2.045718 19.62963 C 2.060765 19.666088 2.079283 19.700521 2.100985 19.733218 C 2.122975 19.766204 2.14786 19.796297 2.175637 19.824364 C 2.203704 19.852142 2.233797 19.877026 2.266783 19.899017 C 2.29948 19.920718 2.333913 19.939237 2.370371 19.954283 C 2.406829 19.969329 2.444445 19.980903 2.482929 19.988426 C 2.521702 19.996239 2.560475 20 2.600117 20 L 21.399886 20 C 21.439527 20 21.4783 19.996239 21.517073 19.988426 C 21.555557 19.980903 21.593173 19.969329 21.629631 19.954283 C 21.66609 19.939237 21.700523 19.920718 21.733219 19.899017 C 21.766205 19.877026 21.796298 19.852142 21.824365 19.824364 C 21.852143 19.796297 21.877027 19.766204 21.899018 19.733218 C 21.920719 19.700521 21.939238 19.666088 21.954284 19.62963 C 21.96933 19.593172 21.980905 19.555556 21.988428 19.517072 C 21.99624 19.478299 22.000002 19.439526 22.000002 19.399885 L 22.000002 11 M 2.000001 11 L 22.000002 11 " stroke="#000000" stroke-width="1.5" stroke-opacity="1" stroke-miterlimit="4"/><g fill="#000000" fill-opacity="1"><g transform="translate(313.242175, 462.898101)"><g><path d="M 16.71875 -32.84375 C 18.976562 -32.84375 20.914062 -32.4375 22.53125 -31.625 C 24.144531 -30.8125 25.375 -29.648438 26.21875 -28.140625 C 27.070312 -26.640625 27.5 -24.875 27.5 -22.84375 C 27.5 -20.800781 27.070312 -19.03125 26.21875 -17.53125 C 25.375 -16.039062 24.144531 -14.882812 22.53125 -14.0625 C 20.914062 -13.25 18.976562 -12.84375 16.71875 -12.84375 L 8.828125 -12.84375 L 8.828125 0 L 4.96875 0 L 4.96875 -32.84375 Z M 16.59375 -16.15625 C 21.164062 -16.15625 23.453125 -18.382812 23.453125 -22.84375 C 23.453125 -27.320312 21.164062 -29.5625 16.59375 -29.5625 L 8.828125 -29.5625 L 8.828125 -16.15625 Z M 16.59375 -16.15625 "/></g></g></g><g fill="#000000" fill-opacity="1"><g transform="translate(343.180067, 462.898101)"><g><path d="M 4.3125 0 L 4.3125 -24.78125 L 7.796875 -24.78125 L 7.796875 -20.890625 L 8.265625 -20.78125 C 9.421875 -23.59375 11.59375 -25 14.78125 -25 C 16.46875 -25 17.734375 -24.691406 18.578125 -24.078125 L 17.625 -20.984375 L 17.1875 -20.890625 C 16.257812 -21.347656 15.238281 -21.578125 14.125 -21.578125 C 12.144531 -21.578125 10.625 -20.835938 9.5625 -19.359375 C 8.5 -17.878906 7.96875 -15.476562 7.96875 -12.15625 L 7.96875 0 Z M 4.3125 0 "/></g></g></g><g fill="#000000" fill-opacity="1"><g transform="translate(362.31516, 462.898101)"><g><path d="M 14.21875 0.46875 C 11.882812 0.46875 9.851562 -0.0234375 8.125 -1.015625 C 6.394531 -2.003906 5.0625 -3.457031 4.125 -5.375 C 3.1875 -7.300781 2.71875 -9.632812 2.71875 -12.375 C 2.71875 -15.113281 3.1875 -17.445312 4.125 -19.375 C 5.0625 -21.3125 6.394531 -22.773438 8.125 -23.765625 C 9.851562 -24.753906 11.882812 -25.25 14.21875 -25.25 C 16.550781 -25.25 18.582031 -24.753906 20.3125 -23.765625 C 22.039062 -22.773438 23.375 -21.3125 24.3125 -19.375 C 25.25 -17.445312 25.71875 -15.113281 25.71875 -12.375 C 25.71875 -9.632812 25.25 -7.300781 24.3125 -5.375 C 23.375 -3.457031 22.039062 -2.003906 20.3125 -1.015625 C 18.582031 -0.0234375 16.550781 0.46875 14.21875 0.46875 Z M 14.21875 -2.8125 C 16.6875 -2.8125 18.578125 -3.585938 19.890625 -5.140625 C 21.203125 -6.703125 21.859375 -9.113281 21.859375 -12.375 C 21.859375 -15.65625 21.203125 -18.070312 19.890625 -19.625 C 18.578125 -21.1875 16.6875 -21.96875 14.21875 -21.96875 C 11.75 -21.96875 9.851562 -21.179688 8.53125 -19.609375 C 7.21875 -18.046875 6.5625 -15.632812 6.5625 -12.375 C 6.5625 -9.113281 7.21875 -6.703125 8.53125 -5.140625 C 9.851562 -3.585938 11.75 -2.8125 14.21875 -2.8125 Z M 14.21875 -2.8125 "/></g></g></g><g fill="#000000" fill-opacity="1"><g transform="translate(390.74829, 462.898101)"><g><path d="M 6.15625 -29.5625 C 5.375 -29.5625 4.738281 -29.800781 4.25 -30.28125 C 3.769531 -30.769531 3.53125 -31.390625 3.53125 -32.140625 C 3.53125 -32.890625 3.769531 -33.503906 4.25 -33.984375 C 4.738281 -34.472656 5.375 -34.71875 6.15625 -34.71875 C 6.9375 -34.71875 7.566406 -34.472656 8.046875 -33.984375 C 8.535156 -33.503906 8.78125 -32.890625 8.78125 -32.140625 C 8.78125 -31.390625 8.535156 -30.769531 8.046875 -30.28125 C 7.566406 -29.800781 6.9375 -29.5625 6.15625 -29.5625 Z M 1.21875 10.515625 C 0.4375 10.515625 -0.25 10.457031 -0.84375 10.34375 C -1.445312 10.226562 -2.023438 10.066406 -2.578125 9.859375 L -2.015625 7.03125 L -1.59375 6.890625 C -0.84375 7.179688 -0.078125 7.328125 0.703125 7.328125 C 1.867188 7.328125 2.757812 6.941406 3.375 6.171875 C 4 5.398438 4.3125 4.296875 4.3125 2.859375 L 4.3125 -24.78125 L 7.96875 -24.78125 L 7.96875 2.71875 C 7.96875 5.207031 7.375 7.128906 6.1875 8.484375 C 5.007812 9.835938 3.351562 10.515625 1.21875 10.515625 Z M 1.21875 10.515625 "/></g></g></g><g fill="#000000" fill-opacity="1"><g transform="translate(403.033385, 462.898101)"><g><path d="M 23.609375 -11.546875 L 6.578125 -11.546875 C 6.679688 -8.535156 7.40625 -6.328125 8.75 -4.921875 C 10.09375 -3.515625 11.929688 -2.8125 14.265625 -2.8125 C 16.023438 -2.8125 17.441406 -3.125 18.515625 -3.75 C 19.597656 -4.375 20.445312 -5.363281 21.0625 -6.71875 L 21.546875 -6.71875 L 23.921875 -5.296875 C 23.203125 -3.503906 22.050781 -2.09375 20.46875 -1.0625 C 18.894531 -0.0390625 16.828125 0.46875 14.265625 0.46875 C 11.867188 0.46875 9.804688 0 8.078125 -0.9375 C 6.359375 -1.882812 5.035156 -3.316406 4.109375 -5.234375 C 3.179688 -7.148438 2.71875 -9.53125 2.71875 -12.375 C 2.71875 -15.1875 3.207031 -17.554688 4.1875 -19.484375 C 5.164062 -21.421875 6.503906 -22.863281 8.203125 -23.8125 C 9.910156 -24.769531 11.851562 -25.25 14.03125 -25.25 C 17.207031 -25.25 19.6875 -24.351562 21.46875 -22.5625 C 23.25 -20.769531 24.148438 -18.113281 24.171875 -14.59375 C 24.171875 -13.21875 24.140625 -12.289062 24.078125 -11.8125 Z M 20.546875 -14.59375 C 20.492188 -17.226562 19.910156 -19.144531 18.796875 -20.34375 C 17.691406 -21.539062 16.101562 -22.140625 14.03125 -22.140625 C 11.863281 -22.140625 10.160156 -21.535156 8.921875 -20.328125 C 7.691406 -19.128906 6.941406 -17.21875 6.671875 -14.59375 Z M 20.546875 -14.59375 "/></g></g></g><g fill="#000000" fill-opacity="1"><g transform="translate(429.445203, 462.898101)"><g><path d="M 14.21875 0.46875 C 12.03125 0.46875 10.066406 -0.0234375 8.328125 -1.015625 C 6.597656 -2.015625 5.226562 -3.484375 4.21875 -5.421875 C 3.21875 -7.359375 2.71875 -9.675781 2.71875 -12.375 C 2.71875 -15.082031 3.21875 -17.40625 4.21875 -19.34375 C 5.226562 -21.289062 6.597656 -22.757812 8.328125 -23.75 C 10.066406 -24.75 12.03125 -25.25 14.21875 -25.25 C 16.84375 -25.25 18.925781 -24.753906 20.46875 -23.765625 C 22.019531 -22.773438 23.140625 -21.457031 23.828125 -19.8125 L 21.34375 -18.015625 L 20.890625 -18.015625 C 20.210938 -19.378906 19.347656 -20.378906 18.296875 -21.015625 C 17.242188 -21.648438 15.882812 -21.96875 14.21875 -21.96875 C 12.6875 -21.96875 11.34375 -21.609375 10.1875 -20.890625 C 9.039062 -20.171875 8.148438 -19.09375 7.515625 -17.65625 C 6.878906 -16.21875 6.5625 -14.457031 6.5625 -12.375 C 6.5625 -10.3125 6.878906 -8.5625 7.515625 -7.125 C 8.160156 -5.695312 9.054688 -4.617188 10.203125 -3.890625 C 11.347656 -3.171875 12.6875 -2.8125 14.21875 -2.8125 C 15.9375 -2.8125 17.359375 -3.195312 18.484375 -3.96875 C 19.617188 -4.75 20.507812 -5.976562 21.15625 -7.65625 L 21.625 -7.65625 L 24.03125 -6.25 C 23.382812 -4.164062 22.234375 -2.523438 20.578125 -1.328125 C 18.929688 -0.128906 16.8125 0.46875 14.21875 0.46875 Z M 14.21875 0.46875 "/></g></g></g><g fill="#000000" fill-opacity="1"><g transform="translate(454.981124, 462.898101)"><g><path d="M 16.75 -3.9375 L 17.921875 -1.296875 C 17.335938 -0.710938 16.570312 -0.273438 15.625 0.015625 C 14.675781 0.316406 13.644531 0.46875 12.53125 0.46875 C 7.800781 0.46875 5.4375 -1.925781 5.4375 -6.71875 L 5.4375 -21.78125 L 1.125 -21.78125 L 1.125 -24.796875 L 5.4375 -24.796875 L 5.4375 -30.03125 L 9.09375 -30.640625 L 9.09375 -24.796875 L 17.078125 -24.796875 L 17.078125 -21.78125 L 9.09375 -21.78125 L 9.09375 -7.078125 C 9.09375 -4.234375 10.328125 -2.8125 12.796875 -2.8125 C 14.148438 -2.8125 15.3125 -3.1875 16.28125 -3.9375 Z M 16.75 -3.9375 "/></g></g></g><g fill="#000000" fill-opacity="1"><g transform="translate(473.846709, 462.898101)"><g><path d="M 11.296875 0.46875 C 9.742188 0.46875 8.300781 0.265625 6.96875 -0.140625 C 5.644531 -0.554688 4.523438 -1.125 3.609375 -1.84375 C 2.703125 -2.5625 2.0625 -3.367188 1.6875 -4.265625 L 3.84375 -6.515625 L 4.3125 -6.515625 C 5.125 -5.285156 6.097656 -4.359375 7.234375 -3.734375 C 8.367188 -3.117188 9.722656 -2.8125 11.296875 -2.8125 C 13.117188 -2.8125 14.503906 -3.164062 15.453125 -3.875 C 16.410156 -4.582031 16.890625 -5.570312 16.890625 -6.84375 C 16.890625 -7.820312 16.597656 -8.628906 16.015625 -9.265625 C 15.441406 -9.898438 14.515625 -10.375 13.234375 -10.6875 L 9.046875 -11.71875 C 6.816406 -12.257812 5.1875 -13.113281 4.15625 -14.28125 C 3.132812 -15.445312 2.625 -16.894531 2.625 -18.625 C 2.625 -19.96875 2.96875 -21.132812 3.65625 -22.125 C 4.34375 -23.125 5.332031 -23.894531 6.625 -24.4375 C 7.925781 -24.976562 9.46875 -25.25 11.25 -25.25 C 13.53125 -25.25 15.320312 -24.929688 16.625 -24.296875 C 17.9375 -23.660156 18.960938 -22.769531 19.703125 -21.625 L 17.625 -19.609375 L 17.1875 -19.609375 C 16.394531 -20.523438 15.53125 -21.179688 14.59375 -21.578125 C 13.65625 -21.984375 12.539062 -22.1875 11.25 -22.1875 C 9.625 -22.1875 8.375 -21.894531 7.5 -21.3125 C 6.632812 -20.726562 6.203125 -19.882812 6.203125 -18.78125 C 6.203125 -17.769531 6.507812 -16.957031 7.125 -16.34375 C 7.738281 -15.738281 8.804688 -15.25 10.328125 -14.875 L 14.4375 -13.875 C 16.59375 -13.375 18.148438 -12.53125 19.109375 -11.34375 C 20.066406 -10.15625 20.546875 -8.671875 20.546875 -6.890625 C 20.546875 -5.441406 20.203125 -4.160156 19.515625 -3.046875 C 18.828125 -1.941406 17.785156 -1.078125 16.390625 -0.453125 C 15.003906 0.160156 13.304688 0.46875 11.296875 0.46875 Z M 11.296875 0.46875 "/></g></g></g></svg>