<svg xmlns="http://www.w3.org/2000/svg" xmlns:xlink="http://www.w3.org/1999/xlink" width="1080" zoomAndPan="magnify" viewBox="0 0 810 809.999993" height="1080" preserveAspectRatio="xMidYMid meet" version="1.0"><defs><g/></defs><rect x="-81" width="972" fill="#ffffff" y="-80.999999" height="971.999992" fill-opacity="1"/><rect x="-81" width="972" fill="#ffffff" y="-80.999999" height="971.999992" fill-opacity="1"/><rect x="-81" width="972" fill="#ffffff" y="-80.999999" height="971.999992" fill-opacity="1"/><path stroke-linecap="round" transform="matrix(0.879696, 0, 0, 0.879696, 0.262842, 0.00002)" fill="none" stroke-linejoin="round" d="M 2.001369 10.998988 L 2.001369 4.60029 C 2.001369 4.435993 2.059095 4.293899 2.174547 4.174006 C 2.294439 4.058554 2.436533 4.000828 2.60083 4.000828 L 8.777505 4.000828 C 8.92404 4.000828 9.057254 4.049673 9.168265 4.142923 L 12.32987 6.856042 C 12.445322 6.953732 12.574095 6.998136 12.72063 6.998136 L 21.401723 6.998136 C 21.566019 6.998136 21.708114 7.060303 21.823566 7.175755 C 21.943458 7.291207 22.001184 7.433301 22.001184 7.602039 L 22.001184 10.998988 M 2.001369 10.998988 L 2.001369 19.400331 C 2.001369 19.564628 2.059095 19.706723 2.174547 19.822174 C 2.294439 19.942067 2.436533 19.999793 2.60083 19.999793 L 21.401723 19.999793 C 21.566019 19.999793 21.708114 19.942067 21.823566 19.822174 C 21.943458 19.706723 22.001184 19.564628 22.001184 19.400331 L 22.001184 10.998988 M 2.001369 10.998988 L 22.001184 10.998988 " stroke="#000000" stroke-width="1.5" stroke-opacity="1" stroke-miterlimit="4"/><g fill="#000000" fill-opacity="1"><g transform="translate(2.553571, 14.163493)"><g><path d="M 1.5 -2.90625 C 1.707031 -2.90625 1.882812 -2.863281 2.03125 -2.78125 C 2.175781 -2.707031 2.285156 -2.601562 2.359375 -2.46875 C 2.441406 -2.332031 2.484375 -2.171875 2.484375 -1.984375 C 2.484375 -1.804688 2.441406 -1.648438 2.359375 -1.515625 C 2.285156 -1.378906 2.175781 -1.269531 2.03125 -1.1875 C 1.882812 -1.113281 1.707031 -1.078125 1.5 -1.078125 L 0.953125 -1.078125 L 0.953125 0 L 0.375 0 L 0.375 -2.90625 Z M 1.421875 -1.53125 C 1.742188 -1.53125 1.90625 -1.679688 1.90625 -1.984375 C 1.90625 -2.296875 1.742188 -2.453125 1.421875 -2.453125 L 0.953125 -2.453125 L 0.953125 -1.53125 Z M 1.421875 -1.53125 "/></g></g><g transform="translate(5.202876, 14.163493)"><g><path d="M 0.3125 0 L 0.3125 -2.1875 L 0.84375 -2.1875 L 0.84375 -1.859375 L 0.890625 -1.859375 C 0.941406 -1.972656 1.007812 -2.054688 1.09375 -2.109375 C 1.1875 -2.171875 1.289062 -2.203125 1.40625 -2.203125 C 1.53125 -2.203125 1.628906 -2.179688 1.703125 -2.140625 L 1.609375 -1.671875 L 1.5625 -1.65625 C 1.519531 -1.675781 1.484375 -1.6875 1.453125 -1.6875 C 1.421875 -1.695312 1.382812 -1.703125 1.34375 -1.703125 C 1.1875 -1.703125 1.066406 -1.644531 0.984375 -1.53125 C 0.898438 -1.425781 0.859375 -1.257812 0.859375 -1.03125 L 0.859375 0 Z M 0.3125 0 "/></g></g><g transform="translate(6.918182, 14.163493)"><g><path d="M 1.265625 0.046875 C 1.054688 0.046875 0.867188 0.00390625 0.703125 -0.078125 C 0.546875 -0.171875 0.421875 -0.300781 0.328125 -0.46875 C 0.242188 -0.644531 0.203125 -0.851562 0.203125 -1.09375 C 0.203125 -1.332031 0.242188 -1.535156 0.328125 -1.703125 C 0.421875 -1.878906 0.546875 -2.007812 0.703125 -2.09375 C 0.867188 -2.1875 1.054688 -2.234375 1.265625 -2.234375 C 1.484375 -2.234375 1.671875 -2.1875 1.828125 -2.09375 C 1.992188 -2.007812 2.117188 -1.878906 2.203125 -1.703125 C 2.296875 -1.535156 2.34375 -1.332031 2.34375 -1.09375 C 2.34375 -0.851562 2.296875 -0.644531 2.203125 -0.46875 C 2.117188 -0.300781 1.992188 -0.171875 1.828125 -0.078125 C 1.671875 0.00390625 1.484375 0.046875 1.265625 0.046875 Z M 1.265625 -0.421875 C 1.609375 -0.421875 1.78125 -0.644531 1.78125 -1.09375 C 1.78125 -1.320312 1.734375 -1.488281 1.640625 -1.59375 C 1.554688 -1.707031 1.429688 -1.765625 1.265625 -1.765625 C 0.929688 -1.765625 0.765625 -1.539062 0.765625 -1.09375 C 0.765625 -0.644531 0.929688 -0.421875 1.265625 -0.421875 Z M 1.265625 -0.421875 "/></g></g><g transform="translate(9.460405, 14.163493)"><g><path d="M 0.59375 -2.453125 C 0.488281 -2.453125 0.40625 -2.476562 0.34375 -2.53125 C 0.28125 -2.59375 0.25 -2.671875 0.25 -2.765625 C 0.25 -2.859375 0.28125 -2.9375 0.34375 -3 C 0.40625 -3.0625 0.488281 -3.09375 0.59375 -3.09375 C 0.65625 -3.09375 0.710938 -3.078125 0.765625 -3.046875 C 0.816406 -3.023438 0.851562 -2.988281 0.875 -2.9375 C 0.90625 -2.882812 0.921875 -2.828125 0.921875 -2.765625 C 0.921875 -2.710938 0.90625 -2.660156 0.875 -2.609375 C 0.851562 -2.554688 0.816406 -2.515625 0.765625 -2.484375 C 0.710938 -2.460938 0.65625 -2.453125 0.59375 -2.453125 Z M 0.171875 0.921875 C 0.00390625 0.921875 -0.125 0.898438 -0.21875 0.859375 L -0.15625 0.4375 L -0.109375 0.421875 C -0.0546875 0.441406 0.00390625 0.453125 0.078125 0.453125 C 0.234375 0.453125 0.3125 0.359375 0.3125 0.171875 L 0.3125 -2.1875 L 0.859375 -2.1875 L 0.859375 0.15625 C 0.859375 0.414062 0.800781 0.609375 0.6875 0.734375 C 0.570312 0.859375 0.398438 0.921875 0.171875 0.921875 Z M 0.171875 0.921875 "/></g></g><g transform="translate(10.638314, 14.163493)"><g><path d="M 2.15625 -0.96875 L 0.75 -0.96875 C 0.769531 -0.78125 0.828125 -0.640625 0.921875 -0.546875 C 1.015625 -0.460938 1.140625 -0.421875 1.296875 -0.421875 C 1.421875 -0.421875 1.519531 -0.441406 1.59375 -0.484375 C 1.675781 -0.535156 1.742188 -0.609375 1.796875 -0.703125 L 1.828125 -0.703125 L 2.203125 -0.46875 C 2.128906 -0.320312 2.019531 -0.195312 1.875 -0.09375 C 1.726562 0 1.535156 0.046875 1.296875 0.046875 C 1.066406 0.046875 0.867188 0.00390625 0.703125 -0.078125 C 0.546875 -0.171875 0.421875 -0.300781 0.328125 -0.46875 C 0.242188 -0.632812 0.203125 -0.84375 0.203125 -1.09375 C 0.203125 -1.34375 0.25 -1.550781 0.34375 -1.71875 C 0.4375 -1.894531 0.5625 -2.023438 0.71875 -2.109375 C 0.875 -2.191406 1.050781 -2.234375 1.25 -2.234375 C 1.5625 -2.234375 1.800781 -2.148438 1.96875 -1.984375 C 2.132812 -1.816406 2.21875 -1.578125 2.21875 -1.265625 C 2.21875 -1.148438 2.210938 -1.0625 2.203125 -1 Z M 1.6875 -1.328125 C 1.6875 -1.492188 1.648438 -1.613281 1.578125 -1.6875 C 1.503906 -1.757812 1.394531 -1.796875 1.25 -1.796875 C 0.976562 -1.796875 0.816406 -1.640625 0.765625 -1.328125 Z M 1.6875 -1.328125 "/></g></g><g transform="translate(13.015947, 14.163493)"><g><path d="M 1.28125 0.046875 C 1.0625 0.046875 0.867188 0.00390625 0.703125 -0.078125 C 0.546875 -0.171875 0.421875 -0.300781 0.328125 -0.46875 C 0.242188 -0.644531 0.203125 -0.851562 0.203125 -1.09375 C 0.203125 -1.332031 0.242188 -1.535156 0.328125 -1.703125 C 0.421875 -1.878906 0.546875 -2.007812 0.703125 -2.09375 C 0.867188 -2.1875 1.054688 -2.234375 1.265625 -2.234375 C 1.722656 -2.234375 2.019531 -2.066406 2.15625 -1.734375 L 1.78125 -1.453125 L 1.734375 -1.453125 C 1.691406 -1.554688 1.632812 -1.632812 1.5625 -1.6875 C 1.488281 -1.738281 1.390625 -1.765625 1.265625 -1.765625 C 1.109375 -1.765625 0.984375 -1.707031 0.890625 -1.59375 C 0.804688 -1.488281 0.765625 -1.320312 0.765625 -1.09375 C 0.765625 -0.863281 0.804688 -0.691406 0.890625 -0.578125 C 0.984375 -0.472656 1.113281 -0.421875 1.28125 -0.421875 C 1.394531 -0.421875 1.492188 -0.453125 1.578125 -0.515625 C 1.660156 -0.578125 1.71875 -0.671875 1.75 -0.796875 L 1.796875 -0.796875 L 2.1875 -0.59375 C 2.132812 -0.40625 2.03125 -0.25 1.875 -0.125 C 1.726562 -0.0078125 1.53125 0.046875 1.28125 0.046875 Z M 1.28125 0.046875 "/></g></g><g transform="translate(15.270632, 14.163493)"><g><path d="M 1.515625 -0.515625 L 1.65625 -0.109375 C 1.59375 -0.0664062 1.515625 -0.03125 1.421875 0 C 1.335938 0.03125 1.238281 0.046875 1.125 0.046875 C 0.882812 0.046875 0.703125 -0.015625 0.578125 -0.140625 C 0.460938 -0.273438 0.40625 -0.46875 0.40625 -0.71875 L 0.40625 -1.75 L 0.0625 -1.75 L 0.0625 -2.1875 L 0.40625 -2.1875 L 0.40625 -2.609375 L 0.953125 -2.703125 L 0.953125 -2.1875 L 1.5625 -2.1875 L 1.5625 -1.75 L 0.953125 -1.75 L 0.953125 -0.75 C 0.953125 -0.644531 0.972656 -0.566406 1.015625 -0.515625 C 1.054688 -0.460938 1.125 -0.4375 1.21875 -0.4375 C 1.3125 -0.4375 1.394531 -0.460938 1.46875 -0.515625 Z M 1.515625 -0.515625 "/></g></g><g transform="translate(16.970074, 14.163493)"><g><path d="M 1.03125 0.046875 C 0.875 0.046875 0.734375 0.03125 0.609375 0 C 0.484375 -0.0390625 0.375 -0.09375 0.28125 -0.15625 C 0.195312 -0.21875 0.132812 -0.285156 0.09375 -0.359375 L 0.40625 -0.703125 L 0.453125 -0.703125 C 0.523438 -0.597656 0.609375 -0.519531 0.703125 -0.46875 C 0.804688 -0.425781 0.914062 -0.40625 1.03125 -0.40625 C 1.132812 -0.40625 1.210938 -0.421875 1.265625 -0.453125 C 1.316406 -0.492188 1.34375 -0.550781 1.34375 -0.625 C 1.34375 -0.675781 1.320312 -0.722656 1.28125 -0.765625 C 1.25 -0.804688 1.191406 -0.835938 1.109375 -0.859375 L 0.8125 -0.921875 C 0.59375 -0.972656 0.429688 -1.050781 0.328125 -1.15625 C 0.234375 -1.257812 0.1875 -1.394531 0.1875 -1.5625 C 0.1875 -1.695312 0.21875 -1.816406 0.28125 -1.921875 C 0.351562 -2.023438 0.453125 -2.101562 0.578125 -2.15625 C 0.710938 -2.207031 0.863281 -2.234375 1.03125 -2.234375 C 1.226562 -2.234375 1.390625 -2.203125 1.515625 -2.140625 C 1.648438 -2.085938 1.753906 -2.015625 1.828125 -1.921875 L 1.53125 -1.59375 L 1.484375 -1.59375 C 1.421875 -1.664062 1.351562 -1.71875 1.28125 -1.75 C 1.207031 -1.78125 1.125 -1.796875 1.03125 -1.796875 C 0.8125 -1.796875 0.703125 -1.726562 0.703125 -1.59375 C 0.703125 -1.539062 0.722656 -1.492188 0.765625 -1.453125 C 0.804688 -1.421875 0.875 -1.394531 0.96875 -1.375 L 1.25 -1.3125 C 1.46875 -1.257812 1.628906 -1.179688 1.734375 -1.078125 C 1.835938 -0.972656 1.890625 -0.832031 1.890625 -0.65625 C 1.890625 -0.519531 1.851562 -0.394531 1.78125 -0.28125 C 1.71875 -0.175781 1.617188 -0.09375 1.484375 -0.03125 C 1.359375 0.0195312 1.207031 0.046875 1.03125 0.046875 Z M 1.03125 0.046875 "/></g></g></g></svg>